<?xml version="1.0" encoding="utf-8"?>
<?xml-stylesheet type="text/xsl" href="rss1.xsl"?>
<rss version="2.0" xmlns:atom="http://www.w3.org/2005/Atom" xmlns:content="http://purl.org/rss/1.0/modules/content/" xmlns:dc="http://purl.org/dc/elements/1.1/" xmlns:media="http://search.yahoo.com/mrss/">
<channel>
 <title>Getty</title>
 <link>http://www.gettyimg.com/</link>
 <atom:link href="http://www.gettyimg.com/" rel="self" type="application/rss+xml" />

 
                <item>
                <title><![CDATA[【Albums (lossy)】Dolby Atmos - Titãs - Microfonado (2024) [Dolby Atmos 5.1 48kHz 16/JOC]]]></title>
                <link><![CDATA[https://sharemania.us/threads/tit%C3%A3s-microfonado-2024-dolby-atmos-5-1-48khz-16-joc.248176/]]></link>
                <description><![CDATA[<article>
<blockquote class="messageText SelectQuoteContainer ugc baseHtml">
<img src="https://a5.mzstatic.com/us/r1000/0/Music221/v4/83/7e/ee/837eee6b-c95f-9a2c-f3fc-29f3db764053/198588388914.jpg" class="bbCodeImage LbImage" alt="[​IMG]" data-url="https://a5.mzstatic.com/us/r1000/0/Music221/v4/83/7e/ee/837eee6b-c95f-9a2c-f3fc-29f3db764053/198588388914.jpg" style=""><br>
<div style="text-align: center"><img src="https://bendodson.s3-eu-west-1.amazonaws.com/apple-music/dolby-atmos.png" class="bbCodeImage LbImage" alt="[​IMG]" data-url="https://bendodson.s3-eu-west-1.amazonaws.com/apple-music/dolby-atmos.png" style="">​</div>
<div class="ToggleTriggerAnchor bbCodeSpoilerContainer">
<button type="button" class="button bbCodeSpoilerButton ToggleTrigger Tooltip JsOnly" data-target="> .SpoilerTarget"><span>Spoiler: <span class="SpoilerTitle">MediaInfo</span></span></button>
<div class="SpoilerTarget bbCodeSpoilerText">
<div class="bbCodeBlock bbCodeCode">
<div class="type">Code:</div>
<pre>General
Format                                   : MPEG-4
Format profile                           : Apple audio with iTunes info
Codec ID                                 : M4A  (isom/M4A /mp42)
File size                                : 7.92 MiB
Duration                                 : 55 s 40 ms
Overall bit rate mode                    : Constant
Overall bit rate                         : 1 206 kb/s
Album                                    : Microfonado
Album/Performer                          : Titãs
Part/Position                            : 1
Track name                               : Titãs Falam Sobre Sonífera Ilha
Track name/Position                      : 1
Performer                                : Titãs
Composer                                 : Sergio de Britto Alvarez Affonso, Antonio Carlos Liberalli Bellotto &amp; Joaquim Claudio Correa de Mello Junior
Genre                                    : Spoken Word
Recorded date                            : 2024-06-27
Encoded date                             : 2024-06-25 11:09:00 UTC
Tagged date                              : 2024-06-25 11:09:00 UTC
Copyright                                : ℗ 2024 Midas Music
Cover                                    : Yes
trk                                      : Titãs Falam Sobre Sonífera Ilha
Make                                     : Midas Music:WM/upc=198588388914:WM/isrc=BKP5A2400093

Audio
ID                                       : 1
Format                                   : E-AC-3 JOC
Format/Info                              : Enhanced AC-3 with Joint Object Coding
Commercial name                          : Dolby Digital Plus with Dolby Atmos
Codec ID                                 : ec-3
Duration                                 : 55 s 40 ms
Bit rate mode                            : Constant
Bit rate                                 : 768 kb/s
Maximum bit rate                         : 811 kb/s
Channel(s)                               : 6 channels
Channel layout                           : L R C LFE Ls Rs
Sampling rate                            : 48.0 kHz
Frame rate                               : 31.250 FPS (1536 SPF)
Compression mode                         : Lossy
Stream size                              : 5.04 MiB (64%)
Title                                    : Titãs Falam Sobre Sonífera Ilha
Service kind                             : Complete Main
Default                                  : Yes
Alternate group                          : 1
Encoded date                             : 2024-06-25 11:09:00 UTC
Tagged date                              : 2024-06-25 11:09:00 UTC
Complexity index                         : 16
Number of dynamic objects                : 15
Bed channel count                        : 1 channel
Bed channel configuration                : LFE
Dialog Normalization                     : -8 dB
compr                                    : -0.28 dB
dmixmod                                  : Lo/Ro
ltrtcmixlev                              : -3.0 dB
ltrtsurmixlev                            : -3.0 dB
lorocmixlev                              : -3.0 dB
lorosurmixlev                            : -3.0 dB
dialnorm_Average                         : -8 dB
dialnorm_Minimum                         : -8 dB
dialnorm_Maximum                         : -8 dB
</pre>
</div></div>
</div><b>Released:</b> June 27, 2024<br>
<b>Source:</b> Apple<br>
<b>File Size:</b> 304 MB<br>
<b>Tracklist:</b><br>
01 Titãs Falam Sobre Sonífera Ilha<br>
02 Sonífera Ilha (Microfonado)<br>
03 Titãs e Ney Matogrosso falam sobre Apocalipse Só<br>
04 Apocalipse Só (Microfonado)<br>
05 Titãs e Preta Gil falam sobre Como É Bom Ser Simples<br>
06 Como É Bom Ser Simples (Microfonado)<br>
07 Titãs Falam Sobre Marvin<br>
08 Marvin (Microfonado)<br>
09 Titãs falam sobre A Melhor Banda de Todos Os Tempos da Última Semana<br>
10 A Melhor Banda de Todos Os Tempos da Última Semana (Microfonado)<br>
11 Titãs e Cyz Mendes Falam sobre Um Mundo<br>
12 Um Mundo (Microfonado)<br>
13 Titãs e Bruna Magalhães falam sobre Porque Eu Sei Que é Amor<br>
14 Porque Eu Sei Que É Amor (Microfonado)<br>
15 Titãs e Major RD falam sobre Cabeça Dinossauro<br>
16 Cabeça Dinossauro (Microfonado)<br>
17 Titãs Falam sobre Raul<br>
18 Raul (Microfonado)<br>
<div class="bbCodeBlock bbCodeVfcHH HiddenContent">
<div class="attribution type">Hidden Content:</div>
<blockquote>You must reply before you can see the hidden data contained here.</blockquote>
</div>
<div class="messageTextEndMarker">&nbsp;</div>
</blockquote>
</article>]]></description>
                <author><![CDATA[itunesboy]]></author>
                </item>

                
                <item>
                <title><![CDATA[【Albums (lossless)】ALAC - Titãs - Microfonado (2024) [Apple Lossless 24B-48kHz]]]></title>
                <link><![CDATA[https://sharemania.us/threads/tit%C3%A3s-microfonado-2024-apple-lossless-24b-48khz.248175/]]></link>
                <description><![CDATA[<article>
<blockquote class="messageText SelectQuoteContainer ugc baseHtml">
<img src="https://a5.mzstatic.com/us/r1000/0/Music221/v4/83/7e/ee/837eee6b-c95f-9a2c-f3fc-29f3db764053/198588388914.jpg" class="bbCodeImage LbImage" alt="[​IMG]" data-url="https://a5.mzstatic.com/us/r1000/0/Music221/v4/83/7e/ee/837eee6b-c95f-9a2c-f3fc-29f3db764053/198588388914.jpg" style=""><br>
<div class="ToggleTriggerAnchor bbCodeSpoilerContainer">
<button type="button" class="button bbCodeSpoilerButton ToggleTrigger Tooltip JsOnly" data-target="> .SpoilerTarget"><span>Spoiler: <span class="SpoilerTitle">MediaInfo</span></span></button>
<div class="SpoilerTarget bbCodeSpoilerText">
<div class="bbCodeBlock bbCodeCode">
<div class="type">Code:</div>
<pre>General
Format                                   : MPEG-4
Format profile                           : Apple audio with iTunes info
Codec ID                                 : M4A  (M4A /isom/iso2)
File size                                : 11.1 MiB
Duration                                 : 55 s 0 ms
Overall bit rate mode                    : Variable
Overall bit rate                         : 1 690 kb/s
Album                                    : Microfonado
Album/Performer                          : Titãs
Part/Position                            : 1
Track name                               : Titãs Falam Sobre Sonífera Ilha
Track name/Position                      : 1
Performer                                : Titãs
Composer                                 : Sergio de Britto Alvarez Affonso, Antonio Carlos Liberalli Bellotto &amp; Joaquim Claudio Correa de Mello Junior
Genre                                    : Spoken Word
Recorded date                            : 2024-06-27
Encoded date                             : 2024-06-25 11:09:00 UTC
Tagged date                              : 2024-06-25 11:09:00 UTC
Copyright                                : ℗ 2024 Midas Music
Cover                                    : Yes

Audio
ID                                       : 2
Format                                   : ALAC
Codec ID                                 : alac
Codec ID/Info                            : Apple Lossless Audio Codec
Duration                                 : 55 s 0 ms
Duration_LastFrame                       : -40 ms
Bit rate mode                            : Variable
Bit rate                                 : 1 251 kb/s
Nominal bit rate                         : 2 304 kb/s
Channel(s)                               : 2 channels
Sampling rate                            : 48.0 kHz
Bit depth                                : 24 bits
Stream size                              : 8.20 MiB (74%)
Default                                  : Yes
Alternate group                          : 1
Encoded date                             : 2024-06-25 11:09:00 UTC
Tagged date                              : 2024-06-25 11:09:00 UTC
</pre>
</div></div>
</div><b>Released:</b> June 27, 2024<br>
<b>Source:</b> Apple<br>
<b>File Size:</b> 580 MB<br>
<b>Tracklist:</b><br>
01 Titãs Falam Sobre Sonífera Ilha<br>
02 Sonífera Ilha (Microfonado)<br>
03 Titãs e Ney Matogrosso falam sobre Apocalipse Só<br>
04 Apocalipse Só (Microfonado)<br>
05 Titãs e Preta Gil falam sobre Como É Bom Ser Simples<br>
06 Como É Bom Ser Simples (Microfonado)<br>
07 Titãs Falam Sobre Marvin<br>
08 Marvin (Microfonado)<br>
09 Titãs falam sobre A Melhor Banda de Todos Os Tempos da Última Semana<br>
10 A Melhor Banda de Todos Os Tempos da Última Semana (Microfonado)<br>
11 Titãs e Cyz Mendes Falam sobre Um Mundo<br>
12 Um Mundo (Microfonado)<br>
13 Titãs e Bruna Magalhães falam sobre Porque Eu Sei Que é Amor<br>
14 Porque Eu Sei Que É Amor (Microfonado)<br>
15 Titãs e Major RD falam sobre Cabeça Dinossauro<br>
16 Cabeça Dinossauro (Microfonado)<br>
17 Titãs Falam sobre Raul<br>
18 Raul (Microfonado)<br>
<div class="bbCodeBlock bbCodeVfcHH HiddenContent">
<div class="attribution type">Hidden Content:</div>
<blockquote>You must reply before you can see the hidden data contained here.</blockquote>
</div>
<div class="messageTextEndMarker">&nbsp;</div>
</blockquote>
</article>]]></description>
                <author><![CDATA[itunesboy]]></author>
                </item>

                </channel></rss>